<svg width="531" height="146" viewBox="0 0 531 146" fill="none" xmlns="http://www.w3.org/2000/svg">
<g clip-path="url(#clip0_156_326)">
<g filter="url(#filter0_d_156_326)">
<rect x="7" y="11" width="70" height="48" rx="15.875" fill="white"/>
<path fill-rule="evenodd" clip-rule="evenodd" d="M44.6109 27.2841L41.055 28.0472V25.1643L44.6109 24.4153V27.2841ZM30.1607 26.0547L26.704 26.7896L26.6898 38.1094C26.6898 40.2009 28.2624 41.7413 30.359 41.7413C31.5207 41.7413 32.3707 41.5293 32.8382 41.275V38.4061C32.3849 38.5899 30.1465 39.2399 30.1465 37.1484V32.1315H32.8382V29.1214H30.1465L30.1607 26.0547ZM21.7884 31.9474C21.0375 31.9474 20.5842 32.1594 20.5842 32.7106C20.5842 33.3123 21.3644 33.5771 22.3323 33.9055C23.9102 34.4408 25.9871 35.1455 25.9959 37.7557C25.9959 40.2854 23.97 41.741 21.0233 41.741C19.805 41.741 18.4733 41.5007 17.1558 40.9354V37.572C18.3458 38.2221 19.8475 38.7026 21.0233 38.7026C21.8167 38.7026 22.3834 38.4906 22.3834 37.8405C22.3834 37.1739 21.5376 36.8693 20.5166 36.5014C18.9616 35.9413 17 35.2346 17 32.8802C17 30.3788 18.9125 28.8808 21.7884 28.8808C22.9642 28.8808 24.1259 29.0645 25.3017 29.5308V32.8519C24.225 32.2725 22.865 31.9474 21.7884 31.9474ZM37.2443 30.1669L37.0176 29.1212H33.9576V41.4867H37.4993V33.1064C38.3351 32.0182 39.7518 32.2161 40.1909 32.3715V29.1212C39.7376 28.9516 38.0801 28.6407 37.2443 30.1669ZM41.0548 29.1211H44.6106V41.4866H41.0548V29.1211ZM68 35.3533C68 31.7355 66.2433 28.8808 62.8858 28.8808C59.5141 28.8808 57.4741 31.7355 57.4741 35.325C57.4741 39.5787 59.8825 41.7268 63.3392 41.7268C65.025 41.7268 66.3 41.3453 67.2633 40.8082V37.9818C66.3 38.4623 65.195 38.7591 63.7925 38.7591C62.4183 38.7591 61.2 38.2786 61.0441 36.611H67.9717C67.9717 36.5331 67.9768 36.3563 67.9826 36.1525V36.1524V36.1523V36.1523C67.9906 35.8753 68 35.5486 68 35.3533ZM61.0016 34.0107C61.0016 32.4137 61.9791 31.7495 62.8716 31.7495C63.7357 31.7495 64.6566 32.4137 64.6566 34.0107H61.0016ZM49.229 29.9831C49.7248 29.5308 50.6173 28.8808 52.0056 28.8808C54.4848 28.8808 56.8223 31.1136 56.8365 35.2119C56.8365 39.6918 54.5273 41.7268 51.9915 41.7268C50.7448 41.7268 49.994 41.204 49.484 40.8365L49.4698 44.8359L45.9281 45.5849V29.1069H49.0448L49.229 29.9831ZM49.4839 37.9537C49.8239 38.3212 50.3197 38.6179 51.1556 38.6179C52.4589 38.6179 53.3373 37.2047 53.3373 35.311C53.3373 33.4597 52.4448 32.0183 51.1556 32.0183C50.3481 32.0183 49.8381 32.3009 49.4697 32.7107L49.4839 37.9537Z" fill="#6461FC"/>
</g>
<g filter="url(#filter1_d_156_326)">
<rect x="357" y="12" width="70" height="48" rx="15.875" fill="white"/>
<path fill-rule="evenodd" clip-rule="evenodd" d="M378.251 44.5171H374.01L370.83 32.3853C370.679 31.8272 370.359 31.3339 369.887 31.1014C368.711 30.517 367.414 30.052 366 29.8174V29.3504H372.831C373.774 29.3504 374.481 30.052 374.599 30.8668L376.249 39.6179L380.488 29.3504H384.61L378.251 44.5171ZM386.968 44.5171H382.963L386.26 29.3504H390.265L386.968 44.5171ZM395.447 33.5517C395.565 32.7348 396.272 32.2677 397.097 32.2677C398.393 32.1505 399.805 32.385 400.984 32.9673L401.691 29.7019C400.512 29.2348 399.216 29.0002 398.039 29.0002C394.152 29.0002 391.324 31.1011 391.324 34.0167C391.324 36.2348 393.327 37.3995 394.742 38.1011C396.272 38.8007 396.861 39.2677 396.743 39.9673C396.743 41.0167 395.565 41.4838 394.388 41.4838C392.974 41.4838 391.56 41.134 390.265 40.5497L389.558 43.8172C390.972 44.3995 392.502 44.634 393.917 44.634C398.275 44.7493 400.984 42.6505 400.984 39.5003C400.984 35.5332 395.447 35.3007 395.447 33.5517ZM415 44.5171L411.82 29.3504H408.404C407.697 29.3504 406.99 29.8174 406.754 30.517L400.866 44.5171H404.989L405.812 42.301H410.877L411.349 44.5171H415ZM408.994 33.4341L410.17 39.1502H406.872L408.994 33.4341Z" fill="#172B85"/>
</g>
<g filter="url(#filter2_d_156_326)">
<rect x="270" y="13" width="70" height="48" rx="15.875" fill="white"/>
<path fill-rule="evenodd" clip-rule="evenodd" d="M289.8 43.4819H286.689C286.476 43.4819 286.295 43.6367 286.262 43.8468L285.003 51.8249C284.978 51.9824 285.1 52.1243 285.26 52.1243H286.745C286.958 52.1243 287.139 51.9695 287.172 51.759L287.512 49.6072C287.545 49.3965 287.726 49.242 287.938 49.242H288.923C290.973 49.242 292.156 48.2502 292.465 46.2849C292.604 45.4251 292.471 44.7495 292.068 44.2763C291.626 43.7569 290.841 43.4819 289.8 43.4819ZM290.159 46.3958C289.989 47.5123 289.136 47.5123 288.311 47.5123H287.842L288.171 45.4272C288.191 45.3013 288.3 45.2085 288.427 45.2085H288.642C289.204 45.2085 289.734 45.2085 290.008 45.5287C290.171 45.7198 290.221 46.0036 290.159 46.3958ZM299.1 46.36H297.61C297.483 46.36 297.374 46.4529 297.354 46.579L297.288 46.9956L297.184 46.8447C296.862 46.3765 296.142 46.22 295.424 46.22C293.778 46.22 292.372 47.467 292.098 49.2163C291.956 50.0887 292.158 50.923 292.653 51.5049C293.107 52.0399 293.757 52.2628 294.53 52.2628C295.856 52.2628 296.592 51.4097 296.592 51.4097L296.525 51.8239C296.5 51.9822 296.622 52.1241 296.781 52.1241H298.123C298.336 52.1241 298.516 51.9693 298.55 51.7588L299.355 46.6594C299.381 46.5026 299.259 46.36 299.1 46.36ZM297.023 49.2598C296.88 50.111 296.204 50.6824 295.343 50.6824C294.91 50.6824 294.564 50.5436 294.342 50.2807C294.122 50.0196 294.038 49.6478 294.108 49.234C294.243 48.3899 294.93 47.8001 295.778 47.8001C296.201 47.8001 296.545 47.9405 296.771 48.2057C296.998 48.4737 297.088 48.8476 297.023 49.2598ZM305.538 46.3598H307.035C307.245 46.3598 307.367 46.595 307.248 46.767L302.268 53.9548C302.188 54.0712 302.055 54.1405 301.913 54.1405H300.418C300.207 54.1405 300.084 53.9034 300.206 53.731L301.757 51.5424L300.108 46.7028C300.051 46.5346 300.175 46.3598 300.354 46.3598H301.825C302.016 46.3598 302.185 46.4853 302.24 46.6683L303.115 49.5912L305.18 46.5495C305.261 46.4308 305.395 46.3598 305.538 46.3598Z" fill="#253B80"/>
<path fill-rule="evenodd" clip-rule="evenodd" d="M321.771 51.8248L323.048 43.7008C323.067 43.5747 323.177 43.4819 323.304 43.4814H324.741C324.9 43.4814 325.022 43.6238 324.997 43.7812L323.737 51.7589C323.705 51.9695 323.524 52.1242 323.31 52.1242H322.026C321.868 52.1242 321.746 51.9823 321.771 51.8248ZM311.992 43.4819H308.88C308.668 43.4819 308.487 43.6366 308.454 43.8467L307.195 51.8248C307.17 51.9823 307.292 52.1242 307.451 52.1242H309.048C309.196 52.1242 309.323 52.016 309.346 51.8686L309.703 49.6071C309.736 49.3964 309.918 49.2419 310.13 49.2419H311.114C313.164 49.2419 314.347 48.2501 314.656 46.2848C314.796 45.425 314.662 44.7494 314.259 44.2762C313.817 43.7568 313.033 43.4819 311.992 43.4819ZM312.351 46.3958C312.181 47.5122 311.328 47.5122 310.503 47.5122H310.034L310.364 45.4271C310.384 45.3012 310.492 45.2084 310.62 45.2084H310.835C311.396 45.2084 311.927 45.2084 312.2 45.5286C312.364 45.7198 312.413 46.0036 312.351 46.3958ZM321.292 46.36H319.803C319.675 46.36 319.566 46.4528 319.547 46.5789L319.481 46.9956L319.376 46.8446C319.054 46.3764 318.335 46.22 317.617 46.22C315.971 46.22 314.565 47.4669 314.291 49.2162C314.149 50.0886 314.351 50.9229 314.846 51.5048C315.301 52.0398 315.949 52.2627 316.722 52.2627C318.049 52.2627 318.784 51.4097 318.784 51.4097L318.718 51.8238C318.693 51.9821 318.815 52.124 318.975 52.124H320.316C320.529 52.124 320.71 51.9693 320.743 51.7587L321.549 46.6593C321.573 46.5025 321.451 46.36 321.292 46.36ZM319.215 49.2598C319.072 50.1109 318.396 50.6823 317.534 50.6823C317.102 50.6823 316.756 50.5436 316.533 50.2806C316.313 50.0196 316.23 49.6478 316.3 49.2339C316.435 48.3899 317.121 47.8 317.969 47.8C318.392 47.8 318.736 47.9404 318.963 48.2057C319.191 48.4737 319.281 48.8476 319.215 49.2598Z" fill="#179BD7"/>
<path d="M301.314 40.6281L301.697 38.1986L300.845 38.1788H296.776L299.604 20.2512C299.612 20.197 299.641 20.1466 299.682 20.1108C299.724 20.0749 299.778 20.0552 299.833 20.0552H306.693C308.971 20.0552 310.542 20.5291 311.363 21.4645C311.748 21.9033 311.993 22.3619 312.111 22.8665C312.235 23.396 312.238 24.0286 312.116 24.8002L312.107 24.8565V25.3509L312.492 25.5689C312.816 25.7407 313.073 25.9374 313.271 26.1627C313.6 26.5379 313.813 27.0147 313.903 27.5801C313.996 28.1615 313.965 28.8533 313.813 29.6366C313.637 30.5377 313.354 31.3224 312.97 31.9645C312.618 32.5562 312.169 33.0468 311.636 33.4272C311.127 33.7885 310.522 34.0628 309.838 34.2384C309.175 34.4108 308.42 34.498 307.591 34.498H307.057C306.676 34.498 306.305 34.6355 306.014 34.882C305.722 35.1336 305.529 35.4771 305.47 35.8532L305.429 36.0719L304.754 40.3538L304.723 40.5111C304.715 40.5609 304.701 40.5858 304.681 40.6026C304.662 40.6178 304.636 40.6281 304.61 40.6281H301.314Z" fill="#253B80"/>
<path d="M312.856 24.9133C312.836 25.0442 312.813 25.1781 312.786 25.3156C311.881 29.9604 308.786 31.565 304.833 31.565H302.821C302.337 31.565 301.93 31.916 301.855 32.3929L300.824 38.9283L300.532 40.7807C300.483 41.0938 300.725 41.3761 301.041 41.3761H304.61C305.033 41.3761 305.392 41.0689 305.459 40.6521L305.494 40.4706L306.166 36.2054L306.209 35.9715C306.275 35.5531 306.635 35.246 307.057 35.246H307.591C311.05 35.246 313.757 33.8418 314.549 29.7783C314.879 28.0808 314.708 26.6635 313.833 25.6666C313.569 25.366 313.24 25.1166 312.856 24.9133Z" fill="#179BD7"/>
<path d="M311.91 24.5366C311.772 24.4964 311.629 24.4598 311.482 24.4269C311.336 24.3948 311.185 24.3662 311.03 24.3414C310.487 24.2536 309.893 24.2119 309.256 24.2119H303.879C303.746 24.2119 303.621 24.2419 303.508 24.296C303.26 24.4152 303.076 24.65 303.031 24.9374L301.887 32.1822L301.854 32.3936C301.93 31.9167 302.337 31.5657 302.82 31.5657H304.833C308.786 31.5657 311.881 29.9603 312.786 25.3163C312.813 25.1788 312.836 25.0449 312.856 24.914C312.627 24.7926 312.379 24.6888 312.112 24.6003C312.046 24.5783 311.978 24.5571 311.91 24.5366Z" fill="#222D65"/>
<path d="M303.031 24.9371C303.076 24.6497 303.26 24.4149 303.508 24.2964C303.621 24.2423 303.747 24.2123 303.879 24.2123H309.256C309.893 24.2123 310.487 24.254 311.03 24.3418C311.185 24.3666 311.336 24.3951 311.483 24.4273C311.629 24.4602 311.772 24.4968 311.91 24.537C311.979 24.5575 312.047 24.5787 312.113 24.5999C312.38 24.6884 312.628 24.793 312.857 24.9137C313.126 23.1972 312.855 22.0285 311.927 20.9702C310.904 19.8052 309.057 19.3064 306.694 19.3064H299.834C299.351 19.3064 298.939 19.6574 298.865 20.135L296.007 38.247C295.951 38.6053 296.227 38.9287 296.589 38.9287H300.824L301.887 32.1819L303.031 24.9371Z" fill="#253B80"/>
</g>
<g filter="url(#filter3_d_156_326)">
<rect x="442" y="70" width="70" height="48" rx="15.875" fill="white"/>
<path fill-rule="evenodd" clip-rule="evenodd" d="M475.06 101.516V95.4745H478.179C479.456 95.4745 480.535 95.0463 481.414 94.2019L481.625 93.9878C483.231 92.2395 483.126 89.5159 481.414 87.8983C480.558 87.042 479.386 86.5782 478.179 86.6019H473.173V101.516H475.06ZM475.06 93.643V88.4336H478.226C478.906 88.4336 479.551 88.6953 480.032 89.171C481.052 90.1701 481.075 91.8352 480.09 92.8699C479.61 93.3813 478.93 93.6668 478.226 93.643H475.06ZM490.429 92.1086C489.62 91.3593 488.518 90.9787 487.123 90.9787C485.33 90.9787 483.982 91.6447 483.091 92.9649L484.755 94.0234C485.365 93.1195 486.197 92.6676 487.252 92.6676C487.921 92.6676 488.565 92.9173 489.069 93.3693C489.562 93.7975 489.843 94.4159 489.843 95.0701V95.5101C489.116 95.1057 488.202 94.8917 487.076 94.8917C485.764 94.8917 484.708 95.2009 483.923 95.8313C483.138 96.4616 482.739 97.2942 482.739 98.3527C482.715 99.3161 483.126 100.232 483.853 100.85C484.591 101.516 485.529 101.849 486.631 101.849C487.932 101.849 488.964 101.267 489.749 100.101H489.831V101.516H491.637V95.2247C491.637 93.9045 491.238 92.8579 490.429 92.1086ZM485.307 99.6374C484.92 99.3519 484.685 98.8881 484.685 98.3886C484.685 97.8296 484.943 97.3657 485.447 96.997C485.963 96.6283 486.608 96.438 487.37 96.438C488.425 96.4261 489.246 96.664 489.832 97.1397C489.832 97.9485 489.516 98.6502 488.894 99.2449C488.332 99.8158 487.57 100.137 486.772 100.137C486.245 100.149 485.729 99.9704 485.307 99.6374ZM495.693 106.001L502 91.312H499.949L497.029 98.6384H496.994L494.005 91.312H491.953L496.092 100.863L493.747 106.001H495.693Z" fill="#3C4043"/>
<path d="M468.544 94.1659C468.544 93.5831 468.497 93.0003 468.404 92.4294H460.444V95.724H465.004C464.816 96.7825 464.207 97.734 463.316 98.3286V100.469H466.035C467.63 98.9828 468.544 96.7825 468.544 94.1659Z" fill="#4285F4"/>
<path d="M460.444 102.539C462.718 102.539 464.641 101.778 466.036 100.47L463.316 98.3289C462.554 98.8522 461.581 99.1496 460.444 99.1496C458.24 99.1496 456.376 97.6391 455.708 95.6172H452.906V97.8294C454.336 100.72 457.255 102.539 460.444 102.539Z" fill="#34A853"/>
<path d="M455.708 95.6174C455.356 94.5589 455.356 93.4052 455.708 92.3348V90.1345H452.906C451.698 92.5489 451.698 95.4033 452.906 97.8177L455.708 95.6174Z" fill="#FBBC04"/>
<path d="M460.444 88.802C461.651 88.7782 462.812 89.2421 463.68 90.0865L466.094 87.6365C464.559 86.1855 462.542 85.3886 460.444 85.4124C457.255 85.4124 454.336 87.244 452.906 90.1341L455.708 92.3463C456.376 90.3125 458.24 88.802 460.444 88.802Z" fill="#EA4335"/>
</g>
<g filter="url(#filter4_d_156_326)">
<rect x="176" y="72" width="70" height="48" rx="15.875" fill="#5A31F4"/>
<path d="M215.409 94.1227C215.409 97.2029 213.249 99.4017 210.232 99.4017H207.389C207.357 99.4017 207.326 99.4079 207.297 99.42C207.268 99.432 207.242 99.4497 207.22 99.4719C207.198 99.4942 207.18 99.5206 207.168 99.5496C207.156 99.5787 207.15 99.6098 207.15 99.6412V103.69C207.15 103.753 207.125 103.814 207.081 103.858C207.036 103.903 206.975 103.929 206.912 103.929H204.923C204.875 103.929 204.829 103.915 204.79 103.888C204.75 103.862 204.72 103.825 204.702 103.781C204.69 103.752 204.683 103.722 204.683 103.691V89.082C204.683 89.0506 204.689 89.0195 204.701 88.9904C204.713 88.9614 204.73 88.935 204.752 88.9127C204.775 88.8905 204.801 88.8728 204.83 88.8608C204.859 88.8487 204.89 88.8425 204.921 88.8425H210.244C213.249 88.8391 215.409 91.0379 215.409 94.1227ZM212.928 94.1227C212.928 92.3519 211.72 91.0576 210.082 91.0576H207.389C207.357 91.0576 207.326 91.0638 207.297 91.0758C207.268 91.0879 207.242 91.1055 207.22 91.1278C207.198 91.15 207.18 91.1764 207.168 91.2055C207.156 91.2345 207.15 91.2656 207.15 91.297V96.9346C207.15 96.9978 207.175 97.0584 207.22 97.1031C207.265 97.1477 207.325 97.1729 207.389 97.1729H210.082C211.72 97.1844 212.928 95.889 212.928 94.1227ZM215.999 101.126C215.978 100.654 216.076 100.184 216.283 99.7588C216.49 99.3338 216.801 98.9673 217.185 98.6927C217.962 98.1086 219.175 97.8067 220.956 97.7442L222.853 97.6772V97.1173C222.853 95.9954 222.101 95.5211 220.894 95.5211C219.686 95.5211 218.92 95.9491 218.745 96.6489C218.73 96.6981 218.7 96.7412 218.659 96.7713C218.617 96.8014 218.567 96.817 218.516 96.8154H216.642C216.607 96.8164 216.573 96.8097 216.541 96.7959C216.51 96.7821 216.482 96.7615 216.459 96.7355C216.436 96.7096 216.419 96.6789 216.41 96.6457C216.4 96.6126 216.398 96.5777 216.404 96.5436C216.681 94.885 218.061 93.6242 220.979 93.6242C224.084 93.6242 225.205 95.07 225.205 97.8298V103.69C225.204 103.753 225.178 103.814 225.133 103.859C225.087 103.904 225.026 103.929 224.962 103.929H223.073C223.01 103.929 222.949 103.904 222.904 103.86C222.882 103.837 222.864 103.811 222.853 103.782C222.841 103.753 222.835 103.722 222.835 103.691V103.252C222.835 103.216 222.825 103.18 222.805 103.15C222.785 103.12 222.757 103.096 222.723 103.083C222.689 103.069 222.652 103.066 222.617 103.074C222.582 103.081 222.549 103.1 222.525 103.126C221.958 103.743 221.043 104.188 219.577 104.188C217.421 104.188 215.999 103.066 215.999 101.126ZM222.853 99.8563V99.4017L220.396 99.5313C219.102 99.5972 218.349 100.135 218.349 101.041C218.349 101.86 219.04 102.313 220.246 102.313C221.885 102.313 222.853 101.428 222.853 99.8563ZM227.102 108.357V106.659C227.102 106.623 227.11 106.588 227.126 106.556C227.141 106.524 227.163 106.495 227.191 106.473C227.219 106.45 227.251 106.434 227.285 106.426C227.32 106.417 227.356 106.416 227.391 106.423C227.68 106.477 227.975 106.505 228.27 106.506C228.777 106.531 229.278 106.384 229.692 106.091C230.106 105.797 230.41 105.373 230.554 104.887L230.677 104.496C230.695 104.443 230.695 104.386 230.677 104.334L226.741 94.2245C226.726 94.1879 226.721 94.1483 226.726 94.1092C226.73 94.0702 226.744 94.0328 226.766 94.0002C226.788 93.9677 226.818 93.941 226.852 93.9225C226.887 93.9039 226.926 93.894 226.965 93.8937H228.874C228.922 93.8942 228.97 93.9094 229.01 93.9372C229.05 93.9651 229.081 94.0043 229.098 94.0499L231.771 101.18C231.788 101.227 231.819 101.268 231.86 101.297C231.901 101.326 231.95 101.342 232 101.342C232.05 101.342 232.099 101.326 232.14 101.297C232.181 101.268 232.212 101.227 232.229 101.18L234.551 94.0695C234.567 94.0209 234.598 93.9786 234.639 93.9487C234.681 93.9188 234.731 93.9028 234.782 93.903H236.756C236.796 93.9032 236.835 93.913 236.87 93.9315C236.905 93.9501 236.935 93.9768 236.957 94.0094C236.979 94.042 236.994 94.0796 236.998 94.1188C237.003 94.1581 236.998 94.1979 236.984 94.2349L232.774 105.462C231.805 108.071 230.142 108.738 228.313 108.738C227.966 108.748 227.619 108.706 227.283 108.615C227.227 108.6 227.179 108.566 227.145 108.519C227.112 108.472 227.097 108.414 227.102 108.357ZM191.898 88.0005C189.391 87.9826 186.972 88.9264 185.139 90.6377C185.061 90.7095 185.012 90.8079 185.002 90.9137C184.992 91.0195 185.022 91.1252 185.086 91.2102L186.22 92.7602C186.257 92.8118 186.305 92.8547 186.36 92.8859C186.415 92.9171 186.476 92.9359 186.54 92.9408C186.603 92.9458 186.666 92.9368 186.726 92.9146C186.785 92.8924 186.839 92.8575 186.883 92.8122C187.542 92.1533 188.326 91.6324 189.189 91.2799C190.051 90.9273 190.976 90.7503 191.908 90.7591C195.799 90.7591 197.831 93.6878 197.831 96.5795C197.831 99.7233 195.696 101.935 192.627 101.979C190.256 101.979 188.469 100.407 188.469 98.3307C188.471 97.8062 188.59 97.2887 188.817 96.8157C189.043 96.3426 189.372 95.9258 189.779 95.5952C189.866 95.5233 189.92 95.4204 189.931 95.3088C189.942 95.1972 189.909 95.0857 189.838 94.9983L188.646 93.4923C188.61 93.4468 188.565 93.4089 188.514 93.381C188.463 93.3531 188.407 93.3356 188.349 93.3297C188.292 93.3238 188.233 93.3295 188.178 93.3465C188.122 93.3635 188.071 93.3915 188.026 93.4287C187.294 94.0188 186.703 94.7653 186.296 95.6135C185.89 96.4618 185.679 97.3902 185.678 98.3307C185.678 101.905 188.715 104.709 192.606 104.732H192.658C197.278 104.672 200.619 101.25 200.619 96.5737C200.619 92.4213 197.56 88.0005 191.9 88.0005H191.898Z" fill="white"/>
</g>
<g filter="url(#filter5_d_156_326)">
<rect x="93" y="72" width="70" height="48" rx="15.875" fill="white"/>
<path fill-rule="evenodd" clip-rule="evenodd" d="M144.254 96.1294C144.254 105.037 137.033 112.259 128.126 112.259C119.218 112.259 111.997 105.037 111.997 96.1294C111.997 87.2215 119.218 80.0002 128.126 80.0002C137.033 80.0002 144.254 87.2215 144.254 96.1294ZM132 90.1368C134.244 90.9072 135.885 92.0609 135.563 94.2079C135.329 95.7801 134.454 96.5404 133.292 96.8067C134.887 97.6336 135.43 99.203 134.925 101.101C133.966 103.832 131.687 104.061 128.656 103.491L127.92 106.426L126.143 105.985L126.869 103.088C126.409 102.974 125.938 102.852 125.453 102.722L124.724 105.633L122.949 105.191L123.684 102.249L120.105 101.35L120.988 99.3228C120.988 99.3228 122.298 99.6687 122.28 99.6435C122.783 99.7675 123.007 99.4408 123.095 99.2239L125.09 91.2562C125.112 90.88 124.981 90.406 124.261 90.2265C124.289 90.2074 122.971 89.9068 122.971 89.9068L123.443 88.016L127.027 88.9004L127.756 85.992L129.532 86.4337L128.818 89.2846C129.296 89.3925 129.776 89.5025 130.243 89.6184L130.951 86.7857L132.728 87.2274L132 90.1368ZM127.749 94.9885C128.959 95.3094 131.593 96.0077 132.052 94.1768C132.52 92.3036 129.961 91.7379 128.709 91.4609C128.567 91.4295 128.441 91.4018 128.339 91.3764L127.455 94.912C127.539 94.9328 127.638 94.9591 127.749 94.9885ZM126.377 100.681C127.827 101.063 130.998 101.898 131.502 99.8808C132.018 97.818 128.944 97.1309 127.445 96.7957C127.277 96.7582 127.129 96.7252 127.008 96.6951L126.032 100.592C126.131 100.616 126.247 100.647 126.377 100.681Z" fill="#F7931A"/>
</g>
<g filter="url(#filter6_d_156_326)">
<rect x="7" y="72" width="70" height="48" rx="15.875" fill="#FEB4C7"/>
<path fill-rule="evenodd" clip-rule="evenodd" d="M24.9594 90.0002H22.1729C22.1729 92.3483 21.1228 94.5034 19.292 95.9133L18.188 96.7633L22.4656 102.76H25.9826L22.0466 97.2421C23.9124 95.3321 24.9594 92.7625 24.9594 90.0002ZM29.5026 102.756H26.8126V90.0028H29.5026V102.756ZM37.6296 93.9338V94.4981C36.9038 93.9891 36.0278 93.6899 35.0829 93.6899C32.5822 93.6899 30.555 95.7741 30.555 98.345C30.555 100.916 32.5822 103 35.0829 103C36.0278 103 36.9038 102.701 37.6296 102.192V102.756H40.1989V93.9338H37.6296ZM37.6218 98.345C37.6218 99.5985 36.5795 100.615 35.2938 100.615C34.0081 100.615 32.9658 99.5985 32.9658 98.345C32.9658 97.0914 34.0081 96.0754 35.2938 96.0754C36.5795 96.0754 37.6218 97.0914 37.6218 98.345ZM64.7342 94.4981V93.9338H67.3033V102.756H64.7342V102.192C64.0084 102.701 63.1323 103 62.1873 103C59.6866 103 57.6594 100.916 57.6594 98.345C57.6594 95.7741 59.6866 93.6899 62.1873 93.6899C63.1323 93.6899 64.0084 93.9891 64.7342 94.4981ZM62.3983 100.615C63.684 100.615 64.7262 99.5985 64.7262 98.345C64.7262 97.0914 63.684 96.0754 62.3983 96.0754C61.1125 96.0754 60.0703 97.0914 60.0703 98.345C60.0703 99.5985 61.1125 100.615 62.3983 100.615ZM53.094 93.697C52.0677 93.697 51.0964 94.0246 50.447 94.9284V93.9348H47.8889V102.756H50.4784V98.1203C50.4784 96.7788 51.3535 96.1219 52.4071 96.1219C53.5362 96.1219 54.1853 96.8153 54.1853 98.1021V102.756H56.7515V97.1462C56.7515 95.0932 55.1637 93.697 53.094 93.697ZM44.1733 93.9341V95.0831C44.6883 94.3939 45.6479 93.9346 46.6913 93.9346V96.5017C46.6864 96.5016 46.6817 96.5014 46.677 96.5011C46.6716 96.5008 46.6663 96.5005 46.6607 96.5005C45.6442 96.5005 44.1792 97.2475 44.1792 98.6371V102.756H41.5428V93.9341H44.1733ZM68.4184 101.284C68.4184 100.369 69.1402 99.6269 70.0306 99.6269C70.921 99.6269 71.6429 100.369 71.6429 101.284C71.6429 102.2 70.921 102.942 70.0306 102.942C69.1402 102.942 68.4184 102.2 68.4184 101.284ZM17.8483 102.76H15V90.0003H17.8483V102.76Z" fill="#17120F"/>
</g>
<g filter="url(#filter7_d_156_326)">
<rect x="270" y="71" width="70" height="48" rx="15.875" fill="white"/>
<ellipse cx="304.87" cy="94.8702" rx="15.87" ry="15.87" fill="#6481E7"/>
<path fill-rule="evenodd" clip-rule="evenodd" d="M305.056 83.7041V99.7245L312.175 95.5162L305.056 83.7041Z" fill="#C1CCF5"/>
<path fill-rule="evenodd" clip-rule="evenodd" d="M297.937 95.5162L305.055 99.7245V83.7041L297.937 95.5162Z" fill="white"/>
<path fill-rule="evenodd" clip-rule="evenodd" d="M305.056 92.2803L297.937 95.5156L305.056 99.7239L312.175 95.5161L305.056 92.2803Z" fill="#8299EC"/>
<path fill-rule="evenodd" clip-rule="evenodd" d="M305.056 101.072V106.898L312.179 96.866L305.056 101.072Z" fill="#C1CCF5"/>
<path fill-rule="evenodd" clip-rule="evenodd" d="M305.056 92.2803L297.937 95.5156L305.056 99.7239L305.056 92.2803Z" fill="#C1CCF5"/>
<path fill-rule="evenodd" clip-rule="evenodd" d="M297.937 96.866L305.056 106.898V101.072L297.937 96.866Z" fill="white"/>
</g>
<g filter="url(#filter8_d_156_326)">
<rect x="357" y="71" width="70" height="47" rx="15.875" fill="white"/>
<path fill-rule="evenodd" clip-rule="evenodd" d="M407.74 94.3729C407.74 102.955 400.635 109.912 391.87 109.912C383.105 109.912 376 102.955 376 94.3729C376 85.7907 383.105 78.8335 391.87 78.8335C400.635 78.8335 407.74 85.7907 407.74 94.3729ZM388 94.3725L390.322 85.8447H395.354L393.612 92.4776L395.935 91.5302L395.354 93.6144L393.031 94.3725L391.87 98.5417H400.193L399.418 101.573H386.064L387.419 96.4567L385.484 97.2148L386.064 95.1306L388 94.3725Z" fill="#A5A8A9"/>
</g>
<g filter="url(#filter9_d_156_326)">
<rect x="93" y="12" width="70" height="48" rx="15.875" fill="#1F72CD"/>
<path fill-rule="evenodd" clip-rule="evenodd" d="M105.549 29.0002L99 43.4937H106.84L107.812 41.1829H110.034L111.006 43.4937H119.636V41.73L120.405 43.4937H124.87L125.639 41.6927V43.4937H143.587L145.769 41.2429L147.813 43.4937L157.032 43.5124L150.462 36.2874L157.032 29.0002H147.956L145.832 31.2095L143.852 29.0002H124.327L122.65 32.7411L120.934 29.0002H113.11V30.704L112.24 29.0002H105.549ZM132.352 31.0583H142.658L145.811 34.4634L149.065 31.0583H152.217L147.427 36.2853L152.217 41.4522H148.922L145.769 38.0075L142.499 41.4522H132.352V31.0583ZM134.897 35.1103V33.2118V33.2099H141.328L144.134 36.2462L141.204 39.299H134.897V37.2263H140.52V35.1103H134.897ZM107.066 31.0583H110.888L115.232 40.8864V31.0583H119.419L122.774 38.105L125.867 31.0583H130.033V41.4583H127.498L127.477 33.3089L123.782 41.4583H121.514L117.798 33.3089V41.4583H112.584L111.595 39.1267H106.254L105.267 41.4563H102.474L107.066 31.0583ZM107.166 36.9713L108.926 32.8179L110.683 36.9713H107.166Z" fill="white"/>
</g>
<g filter="url(#filter10_d_156_326)">
<rect x="176" y="13" width="70" height="48" rx="15.875" fill="white"/>
<path fill-rule="evenodd" clip-rule="evenodd" d="M211.5 47.3139C209.117 49.3705 206.026 50.6119 202.648 50.6119C195.11 50.6119 189 44.4308 189 36.806C189 29.1811 195.11 23 202.648 23C206.026 23 209.117 24.2415 211.5 26.2981C213.883 24.2415 216.974 23 220.352 23C227.89 23 234 29.1812 234 36.806C234 44.4308 227.89 50.612 220.352 50.612C216.974 50.612 213.883 49.3705 211.5 47.3139Z" fill="#ED0006"/>
<path fill-rule="evenodd" clip-rule="evenodd" d="M211.5 47.3139C214.434 44.7816 216.295 41.0136 216.295 36.806C216.295 32.5983 214.434 28.8303 211.5 26.2981C213.883 24.2415 216.974 23 220.352 23C227.89 23 234 29.1811 234 36.806C234 44.4308 227.89 50.6119 220.352 50.6119C216.974 50.6119 213.883 49.3704 211.5 47.3139Z" fill="#F9A000"/>
<path fill-rule="evenodd" clip-rule="evenodd" d="M211.5 47.3138C214.434 44.7816 216.295 41.0136 216.295 36.806C216.295 32.5984 214.434 28.8304 211.5 26.2981C208.566 28.8304 206.705 32.5983 206.705 36.806C206.705 41.0136 208.566 44.7816 211.5 47.3138Z" fill="#FF5E00"/>
</g>
<g filter="url(#filter11_d_156_326)">
<rect x="442" y="11" width="70" height="48" rx="15.875" fill="white"/>
<path fill-rule="evenodd" clip-rule="evenodd" d="M458.692 28.8657C459.633 28.945 460.573 28.3899 461.16 27.6861C461.738 26.9625 462.12 25.991 462.022 24.9998C461.19 25.0394 460.161 25.5549 459.574 26.2785C459.035 26.903 458.575 27.9141 458.692 28.8657ZM469.876 41.633V26.1793H475.604C478.562 26.1793 480.628 28.2411 480.628 31.2545C480.628 34.2679 478.522 36.3496 475.526 36.3496H472.245V41.633H469.876ZM462.012 29.0538C461.184 29.0055 460.428 29.3059 459.818 29.5485C459.425 29.7046 459.092 29.8369 458.839 29.8369C458.555 29.8369 458.209 29.6976 457.82 29.5412C457.31 29.3363 456.728 29.102 456.117 29.1132C454.717 29.1331 453.414 29.936 452.699 31.2147C451.23 33.7722 452.317 37.5588 453.737 39.6404C454.433 40.6713 455.265 41.8014 456.362 41.7617C456.844 41.7433 457.191 41.5942 457.551 41.4399C457.964 41.2623 458.394 41.0777 459.064 41.0777C459.712 41.0777 460.123 41.2575 460.517 41.43C460.892 41.594 461.252 41.7515 461.787 41.7419C462.923 41.7221 463.638 40.711 464.333 39.6801C465.083 38.5736 465.413 37.4938 465.463 37.3299L465.469 37.311C465.468 37.3097 465.458 37.3054 465.442 37.2979C465.191 37.1816 463.274 36.2932 463.256 33.9109C463.237 31.9113 464.776 30.8982 465.019 30.7387C465.033 30.729 465.043 30.7225 465.048 30.7191C464.068 29.252 462.541 29.0934 462.012 29.0538ZM484.956 41.7521C486.445 41.7521 487.825 40.9889 488.452 39.7795H488.501V41.6332H490.695V33.941C490.695 31.7107 488.932 30.2733 486.219 30.2733C483.703 30.2733 481.842 31.7305 481.774 33.7328H483.908C484.085 32.7812 484.956 32.1567 486.151 32.1567C487.6 32.1567 488.413 32.8407 488.413 34.0996V34.9521L485.456 35.1305C482.704 35.299 481.215 36.439 481.215 38.4215C481.215 40.4238 482.753 41.7521 484.956 41.7521ZM485.592 39.918C484.329 39.918 483.526 39.3034 483.526 38.3617C483.526 37.3903 484.3 36.8253 485.778 36.736L488.413 36.5675V37.4398C488.413 38.8871 487.198 39.918 485.592 39.918ZM497.97 42.2377C497.02 44.9439 495.933 45.836 493.622 45.836C493.446 45.836 492.859 45.8162 492.721 45.7765V43.9229C492.868 43.9427 493.231 43.9625 493.417 43.9625C494.465 43.9625 495.052 43.5164 495.414 42.3567L495.63 41.6727L491.615 30.4219H494.092L496.883 39.5514H496.932L499.723 30.4219H502.132L497.97 42.2377ZM472.245 28.2018H474.977C477.034 28.2018 478.209 29.312 478.209 31.2648C478.209 33.2175 477.034 34.3377 474.967 34.3377H472.245V28.2018Z" fill="black"/>
</g>
</g>
<defs>
<filter id="filter0_d_156_326" x="-13" y="-9" width="110" height="88" filterUnits="userSpaceOnUse" color-interpolation-filters="sRGB">
<feFlood flood-opacity="0" result="BackgroundImageFix"/>
<feColorMatrix in="SourceAlpha" type="matrix" values="0 0 0 0 0 0 0 0 0 0 0 0 0 0 0 0 0 0 127 0" result="hardAlpha"/>
<feOffset/>
<feGaussianBlur stdDeviation="10"/>
<feComposite in2="hardAlpha" operator="out"/>
<feColorMatrix type="matrix" values="0 0 0 0 0 0 0 0 0 0 0 0 0 0 0 0 0 0 0.07 0"/>
<feBlend mode="normal" in2="BackgroundImageFix" result="effect1_dropShadow_156_326"/>
<feBlend mode="normal" in="SourceGraphic" in2="effect1_dropShadow_156_326" result="shape"/>
</filter>
<filter id="filter1_d_156_326" x="337" y="-8" width="110" height="88" filterUnits="userSpaceOnUse" color-interpolation-filters="sRGB">
<feFlood flood-opacity="0" result="BackgroundImageFix"/>
<feColorMatrix in="SourceAlpha" type="matrix" values="0 0 0 0 0 0 0 0 0 0 0 0 0 0 0 0 0 0 127 0" result="hardAlpha"/>
<feOffset/>
<feGaussianBlur stdDeviation="10"/>
<feComposite in2="hardAlpha" operator="out"/>
<feColorMatrix type="matrix" values="0 0 0 0 0 0 0 0 0 0 0 0 0 0 0 0 0 0 0.07 0"/>
<feBlend mode="normal" in2="BackgroundImageFix" result="effect1_dropShadow_156_326"/>
<feBlend mode="normal" in="SourceGraphic" in2="effect1_dropShadow_156_326" result="shape"/>
</filter>
<filter id="filter2_d_156_326" x="250" y="-7" width="110" height="88" filterUnits="userSpaceOnUse" color-interpolation-filters="sRGB">
<feFlood flood-opacity="0" result="BackgroundImageFix"/>
<feColorMatrix in="SourceAlpha" type="matrix" values="0 0 0 0 0 0 0 0 0 0 0 0 0 0 0 0 0 0 127 0" result="hardAlpha"/>
<feOffset/>
<feGaussianBlur stdDeviation="10"/>
<feComposite in2="hardAlpha" operator="out"/>
<feColorMatrix type="matrix" values="0 0 0 0 0 0 0 0 0 0 0 0 0 0 0 0 0 0 0.07 0"/>
<feBlend mode="normal" in2="BackgroundImageFix" result="effect1_dropShadow_156_326"/>
<feBlend mode="normal" in="SourceGraphic" in2="effect1_dropShadow_156_326" result="shape"/>
</filter>
<filter id="filter3_d_156_326" x="422" y="50" width="110" height="88" filterUnits="userSpaceOnUse" color-interpolation-filters="sRGB">
<feFlood flood-opacity="0" result="BackgroundImageFix"/>
<feColorMatrix in="SourceAlpha" type="matrix" values="0 0 0 0 0 0 0 0 0 0 0 0 0 0 0 0 0 0 127 0" result="hardAlpha"/>
<feOffset/>
<feGaussianBlur stdDeviation="10"/>
<feComposite in2="hardAlpha" operator="out"/>
<feColorMatrix type="matrix" values="0 0 0 0 0 0 0 0 0 0 0 0 0 0 0 0 0 0 0.07 0"/>
<feBlend mode="normal" in2="BackgroundImageFix" result="effect1_dropShadow_156_326"/>
<feBlend mode="normal" in="SourceGraphic" in2="effect1_dropShadow_156_326" result="shape"/>
</filter>
<filter id="filter4_d_156_326" x="156" y="52" width="110" height="88" filterUnits="userSpaceOnUse" color-interpolation-filters="sRGB">
<feFlood flood-opacity="0" result="BackgroundImageFix"/>
<feColorMatrix in="SourceAlpha" type="matrix" values="0 0 0 0 0 0 0 0 0 0 0 0 0 0 0 0 0 0 127 0" result="hardAlpha"/>
<feOffset/>
<feGaussianBlur stdDeviation="10"/>
<feComposite in2="hardAlpha" operator="out"/>
<feColorMatrix type="matrix" values="0 0 0 0 0 0 0 0 0 0 0 0 0 0 0 0 0 0 0.07 0"/>
<feBlend mode="normal" in2="BackgroundImageFix" result="effect1_dropShadow_156_326"/>
<feBlend mode="normal" in="SourceGraphic" in2="effect1_dropShadow_156_326" result="shape"/>
</filter>
<filter id="filter5_d_156_326" x="73" y="52" width="110" height="88" filterUnits="userSpaceOnUse" color-interpolation-filters="sRGB">
<feFlood flood-opacity="0" result="BackgroundImageFix"/>
<feColorMatrix in="SourceAlpha" type="matrix" values="0 0 0 0 0 0 0 0 0 0 0 0 0 0 0 0 0 0 127 0" result="hardAlpha"/>
<feOffset/>
<feGaussianBlur stdDeviation="10"/>
<feComposite in2="hardAlpha" operator="out"/>
<feColorMatrix type="matrix" values="0 0 0 0 0 0 0 0 0 0 0 0 0 0 0 0 0 0 0.07 0"/>
<feBlend mode="normal" in2="BackgroundImageFix" result="effect1_dropShadow_156_326"/>
<feBlend mode="normal" in="SourceGraphic" in2="effect1_dropShadow_156_326" result="shape"/>
</filter>
<filter id="filter6_d_156_326" x="-13" y="52" width="110" height="88" filterUnits="userSpaceOnUse" color-interpolation-filters="sRGB">
<feFlood flood-opacity="0" result="BackgroundImageFix"/>
<feColorMatrix in="SourceAlpha" type="matrix" values="0 0 0 0 0 0 0 0 0 0 0 0 0 0 0 0 0 0 127 0" result="hardAlpha"/>
<feOffset/>
<feGaussianBlur stdDeviation="10"/>
<feComposite in2="hardAlpha" operator="out"/>
<feColorMatrix type="matrix" values="0 0 0 0 0 0 0 0 0 0 0 0 0 0 0 0 0 0 0.07 0"/>
<feBlend mode="normal" in2="BackgroundImageFix" result="effect1_dropShadow_156_326"/>
<feBlend mode="normal" in="SourceGraphic" in2="effect1_dropShadow_156_326" result="shape"/>
</filter>
<filter id="filter7_d_156_326" x="250" y="51" width="110" height="88" filterUnits="userSpaceOnUse" color-interpolation-filters="sRGB">
<feFlood flood-opacity="0" result="BackgroundImageFix"/>
<feColorMatrix in="SourceAlpha" type="matrix" values="0 0 0 0 0 0 0 0 0 0 0 0 0 0 0 0 0 0 127 0" result="hardAlpha"/>
<feOffset/>
<feGaussianBlur stdDeviation="10"/>
<feComposite in2="hardAlpha" operator="out"/>
<feColorMatrix type="matrix" values="0 0 0 0 0 0 0 0 0 0 0 0 0 0 0 0 0 0 0.07 0"/>
<feBlend mode="normal" in2="BackgroundImageFix" result="effect1_dropShadow_156_326"/>
<feBlend mode="normal" in="SourceGraphic" in2="effect1_dropShadow_156_326" result="shape"/>
</filter>
<filter id="filter8_d_156_326" x="337" y="51" width="110" height="87" filterUnits="userSpaceOnUse" color-interpolation-filters="sRGB">
<feFlood flood-opacity="0" result="BackgroundImageFix"/>
<feColorMatrix in="SourceAlpha" type="matrix" values="0 0 0 0 0 0 0 0 0 0 0 0 0 0 0 0 0 0 127 0" result="hardAlpha"/>
<feOffset/>
<feGaussianBlur stdDeviation="10"/>
<feComposite in2="hardAlpha" operator="out"/>
<feColorMatrix type="matrix" values="0 0 0 0 0 0 0 0 0 0 0 0 0 0 0 0 0 0 0.07 0"/>
<feBlend mode="normal" in2="BackgroundImageFix" result="effect1_dropShadow_156_326"/>
<feBlend mode="normal" in="SourceGraphic" in2="effect1_dropShadow_156_326" result="shape"/>
</filter>
<filter id="filter9_d_156_326" x="73" y="-8" width="110" height="88" filterUnits="userSpaceOnUse" color-interpolation-filters="sRGB">
<feFlood flood-opacity="0" result="BackgroundImageFix"/>
<feColorMatrix in="SourceAlpha" type="matrix" values="0 0 0 0 0 0 0 0 0 0 0 0 0 0 0 0 0 0 127 0" result="hardAlpha"/>
<feOffset/>
<feGaussianBlur stdDeviation="10"/>
<feComposite in2="hardAlpha" operator="out"/>
<feColorMatrix type="matrix" values="0 0 0 0 0 0 0 0 0 0 0 0 0 0 0 0 0 0 0.07 0"/>
<feBlend mode="normal" in2="BackgroundImageFix" result="effect1_dropShadow_156_326"/>
<feBlend mode="normal" in="SourceGraphic" in2="effect1_dropShadow_156_326" result="shape"/>
</filter>
<filter id="filter10_d_156_326" x="156" y="-7" width="110" height="88" filterUnits="userSpaceOnUse" color-interpolation-filters="sRGB">
<feFlood flood-opacity="0" result="BackgroundImageFix"/>
<feColorMatrix in="SourceAlpha" type="matrix" values="0 0 0 0 0 0 0 0 0 0 0 0 0 0 0 0 0 0 127 0" result="hardAlpha"/>
<feOffset/>
<feGaussianBlur stdDeviation="10"/>
<feComposite in2="hardAlpha" operator="out"/>
<feColorMatrix type="matrix" values="0 0 0 0 0 0 0 0 0 0 0 0 0 0 0 0 0 0 0.07 0"/>
<feBlend mode="normal" in2="BackgroundImageFix" result="effect1_dropShadow_156_326"/>
<feBlend mode="normal" in="SourceGraphic" in2="effect1_dropShadow_156_326" result="shape"/>
</filter>
<filter id="filter11_d_156_326" x="422" y="-9" width="110" height="88" filterUnits="userSpaceOnUse" color-interpolation-filters="sRGB">
<feFlood flood-opacity="0" result="BackgroundImageFix"/>
<feColorMatrix in="SourceAlpha" type="matrix" values="0 0 0 0 0 0 0 0 0 0 0 0 0 0 0 0 0 0 127 0" result="hardAlpha"/>
<feOffset/>
<feGaussianBlur stdDeviation="10"/>
<feComposite in2="hardAlpha" operator="out"/>
<feColorMatrix type="matrix" values="0 0 0 0 0 0 0 0 0 0 0 0 0 0 0 0 0 0 0.07 0"/>
<feBlend mode="normal" in2="BackgroundImageFix" result="effect1_dropShadow_156_326"/>
<feBlend mode="normal" in="SourceGraphic" in2="effect1_dropShadow_156_326" result="shape"/>
</filter>
<clipPath id="clip0_156_326">
<rect width="531" height="146" fill="white"/>
</clipPath>
</defs>
</svg>
